<?xml version="1.0" encoding="utf-8"?>
<!-- Generator: Adobe Illustrator 23.1.0, SVG Export Plug-In . SVG Version: 6.00 Build 0)  -->
<svg version="1.1" id="Layer_1" xmlns="http://www.w3.org/2000/svg" xmlns:xlink="http://www.w3.org/1999/xlink" x="0px" y="0px"
   viewBox="0 0 170.1 85" style="enable-background:new 0 0 170.1 85;" xml:space="preserve">
<style type="text/css">
  .st0{fill:#F89823;}
  .st1{fill:#A2A0A0;}
</style>
<g>
  <g id="XMLID_1_">
    <polygon id="XMLID_21_" class="st0" points="110.5,33.9 110.5,27.5 98,27.5 98,31.6 93.2,31.6 93.2,42 105.4,42 105.4,47.4 
      97.8,47.3 97.8,45.3 93.2,45.3 93.2,51.2 110.5,51.2 110.5,38.1 98,38.1 98,31.7 105.7,31.7 105.7,33.9     "/>
    <g id="XMLID_12_">
      <polygon id="XMLID_20_" class="st1" points="25.6,37.3 17.8,37.3 17.8,27.4 13.1,27.4 13.1,51.4 17.8,51.4 17.8,42 25.6,42 
        25.6,51.4 30.8,51.4 30.8,27.4 25.6,27.4       "/>
      <path id="XMLID_17_" class="st1" d="M49.6,37.3H35v14.1h18.7v-5.2h-4.2V37.3z M39.7,46.1V42h5.2v4.2H39.7z"/>
      <polygon id="XMLID_16_" class="st1" points="56.9,37.3 56.9,51.4 71.4,51.4 71.4,46.1 61.5,46.1 61.5,42 71.4,42 71.4,37.3       
        "/>
      <polygon id="XMLID_15_" class="st1" points="80.8,27.4 75.6,27.4 75.6,51.4 80.8,51.4 80.8,46.1 85.5,46.1 85.5,42 80.8,42       
        "/>
      <rect id="XMLID_14_" x="85.5" y="37.3" class="st1" width="4.7" height="4.7"/>
      <rect id="XMLID_13_" x="85.5" y="46.1" class="st1" width="4.7" height="5.2"/>
    </g>
    <g id="XMLID_9_">
      <polygon id="XMLID_11_" class="st0" points="117.6,41.9 113.5,41.9 113.5,51.4 124,51.4 123.8,47.4 117.6,47.4       "/>
      <polygon id="XMLID_10_" class="st0" points="127.8,37.9 117.6,37.9 117.6,41.9 123.8,41.9 123.8,47.4 127.8,47.4       "/>
    </g>
    <g id="XMLID_6_">
      <polygon id="XMLID_8_" class="st0" points="130.6,30.9 130.6,51.3 135.1,51.3 135.1,40.3 139.2,40.3 139.2,35.7 135.1,35.7 
        135.1,30.9      "/>
      <rect id="XMLID_7_" x="135.1" y="27.4" class="st0" width="4.1" height="3.5"/>
    </g>
    <polygon id="XMLID_5_" class="st0" points="145.1,40 149.2,40 149.1,35.7 144.9,35.7 144.9,31.5 141,31.5 141,47.7 145.1,47.7 
      145.1,51.4 149.1,51.4 149.1,47.2 145.1,47.2     "/>
  </g>
</g>
</svg>
